# xmcd
#
# Track frame offsets: 
#        150
#        31609
#        47179
#        65679
#        79203
#        93678
#        118483
#        149623
#        174840
#        206870
#        226876
#        240085
#        266596
#        280289
#
# Disc length: 4197 seconds
#
# Revision: 0
# Processed by: cddbd v1.5.2PL0 Copyright (c) Steve Scherf et al.
# Submitted via: ExactAudioCopy v0.99pb1
#
DISCID=cb10630e
DTITLE=Stevie Ray Vaughan and Friends - Solos, Sessions and Encores
DYEAR=2007
DGENRE=Blues-Rock
TTITLE0=The Sky Is Crying (Live)
TTITLE1=Soulful Dress
TTITLE2=Don't Stop By The Creek, Son
TTITLE3=Miami Strut
TTITLE4=Na-Na-Ne-Na-Nay
TTITLE5=Goin' Down (Live)
TTITLE6=Oreo Cookie Blues (Live)
TTITLE7=On The Run (Live)
TTITLE8=Albert's Shuffle (Live)
TTITLE9=Change It (Live)
TTITLE10=You Can Have My Husband
TTITLE11=Texas Flood (Live)
TTITLE12=Pipeline
TTITLE13=Let's Dance
EXTD=
EXTT0=
EXTT1=
EXTT2=
EXTT3=
EXTT4=
EXTT5=
EXTT6=
EXTT7=
EXTT8=
EXTT9=
EXTT10=
EXTT11=
EXTT12=
EXTT13=
PLAYORDER=
